# xmcd
#
# Track frame offsets:
#	150
#	36270
#	74850
#	103150
#	134978
#	162125
#	189225
#	225185
#	265050
#	294225
#
# Disc length: 4382 seconds
#
# Revision: 0
# Processed by: cddbd v1.4b42PL1 Copyright (c) Steve Scherf et al.
# Submitted via: audiograbber 1.80
#
DISCID=90111c0a
DTITLE=Eric Clapton -  Bad Love Disc 2
DYEAR=1900
DGENRE=
TTITLE0=Blues-Crossroads
TTITLE1=Sunshine Of you Love
TTITLE2=Pretending
TTITLE3=Running Of Faith
TTITLE4=With Room
TTITLE5=Bad Love
TTITLE6=Wonderful Tonight
TTITLE7=Layla
TTITLE8=Kocking`On Heaven`s Door
TTITLE9=Sunshine Of Yor Love
EXTD=
EXTT0=
EXTT1=
EXTT2=
EXTT3=
EXTT4=
EXTT5=
EXTT6=
EXTT7=
EXTT8=
EXTT9=
PLAYORDER=
